<svg width="100%" viewBox="0 0 680 480" xmlns="http://www.w3.org/2000/svg" role="img" aria-label="Accident Command Center">
  <defs>
    <linearGradient id="navyG" x1="0%" y1="0%" x2="0%" y2="100%">
      <stop offset="0%" stop-color="#1E3A8A"/><stop offset="100%" stop-color="#0F2A5A"/>
    </linearGradient>
    <linearGradient id="redG" x1="0%" y1="0%" x2="0%" y2="100%">
      <stop offset="0%" stop-color="#EF4444"/><stop offset="100%" stop-color="#B91C1C"/>
    </linearGradient>
  </defs>
  <g transform="translate(340,200)">
    <circle r="135" fill="none" stroke="#0F2A5A" stroke-width="0.6" opacity="0.18"/>
    <circle r="115" fill="none" stroke="#0F2A5A" stroke-width="0.6" opacity="0.28"/>
    <circle r="95" fill="none" stroke="#0F2A5A" stroke-width="0.8" opacity="0.42"/>
    <path d="M0 -90 L80 -70 L80 0 Q80 40 0 70 Q-80 40 -80 0 L-80 -70 Z" fill="url(#navyG)"/>
    <path d="M0 -90 L80 -70 L80 0 Q80 40 0 70 Q-80 40 -80 0 L-80 -70 Z" fill="none" stroke="#0F2A5A" stroke-width="1"/>
    <text x="0" y="14" text-anchor="middle" font-family="ui-sans-serif,system-ui,sans-serif" font-size="48" font-weight="500" fill="#FAFAFA" letter-spacing="6">ACC</text>
    <text x="0" y="40" text-anchor="middle" font-size="9" fill="#FAFAFA" opacity="0.65" letter-spacing="2.4">COMMAND ACTIVE</text>
    <g transform="translate(0,-90)">
      <circle r="22" fill="#FAFAFA"/>
      <path d="M0 -14 L12 0 L0 14 L-12 0 Z" fill="url(#redG)"/>
      <circle r="3.5" fill="#FAFAFA"/>
    </g>
    <circle r="34" cx="0" cy="-90" fill="none" stroke="#DC2626" stroke-width="0.6">
      <animate attributeName="r" from="22" to="46" dur="1.6s" repeatCount="indefinite"/>
      <animate attributeName="opacity" from="0.7" to="0" dur="1.6s" repeatCount="indefinite"/>
    </circle>
  </g>
  <text x="340" y="370" text-anchor="middle" font-family="ui-sans-serif,system-ui,sans-serif" font-size="32" font-weight="500" fill="#0F2A5A" letter-spacing="1.5">Accident Command Center</text>
  <line x1="240" y1="392" x2="328" y2="392" stroke="#0F2A5A" stroke-width="0.5" opacity="0.35"/>
  <circle cx="340" cy="392" r="2.8" fill="#DC2626"/>
  <line x1="352" y1="392" x2="440" y2="392" stroke="#0F2A5A" stroke-width="0.5" opacity="0.35"/>
  <text x="340" y="418" text-anchor="middle" font-size="13" font-weight="400" fill="#64748B" letter-spacing="2.4">by Donovan Digital Solutions</text>
</svg>
